# Blender v2.82 (sub 7) OBJ File: 'Anyavil_fix.blend'
# www.blender.org
mtllib Anyavil_fix.mtl
o Anyavil
v 0.499901 0.202392 0.312339
v -0.499620 0.202392 0.312339
v -0.500099 0.202392 -0.313063
v -0.500099 0.578063 -0.313063
v -0.500100 0.578063 0.312339
v 0.636822 0.512728 0.212161
v 0.636822 0.257410 0.212160
v 0.499900 0.578063 0.312339
v -0.500105 0.578063 -0.313062
v -1.204864 0.545395 -0.035814
v 0.499901 0.512728 0.212160
v 0.636822 0.517886 -0.212884
v 0.499901 0.202392 -0.313063
v 0.250169 -0.109773 0.125040
v -0.250368 -0.109773 0.125040
v -0.250367 -0.109773 -0.121975
v 0.250169 0.203465 -0.121974
v 0.250169 0.203465 0.125040
v -0.250368 0.203465 0.125040
v -0.250367 0.203465 -0.121974
v 0.250169 -0.109773 -0.121974
v 0.312602 -0.172206 0.249906
v -0.312801 -0.172206 0.249906
v -0.312800 -0.172206 -0.250630
v -0.312800 -0.108700 -0.250630
v -0.312801 -0.108700 0.249906
v 0.312602 -0.108700 0.249906
v 0.312602 -0.108700 -0.250630
v 0.312602 -0.172206 -0.250630
v 0.375035 -0.421938 0.374772
v -0.375234 -0.421938 0.374772
v -0.375233 -0.421938 -0.375496
v -0.375233 -0.171133 -0.375496
v -0.375234 -0.171133 0.374772
v 0.375034 -0.171133 0.374772
v 0.375035 -0.171133 -0.375496
v 0.375035 -0.421938 -0.375496
v 1.090642 0.486591 -0.020742
v 1.090642 0.456470 0.020019
v -1.204864 0.545025 -0.000339
v 0.499901 0.517886 -0.212884
v 0.636822 0.262568 -0.212884
v -1.204500 0.544796 0.035073
v -0.500042 0.578063 0.312339
v 0.636822 0.486621 -0.160835
v 1.090642 0.456470 -0.020742
v 0.636822 0.293833 -0.160835
v -1.204500 0.577955 -0.000362
v 1.090642 0.486591 0.020019
v 0.636822 0.486621 0.160111
v -1.204500 0.577955 0.035073
v -1.204500 0.545083 -0.000362
v -1.204500 0.545370 -0.035797
v 0.499901 0.262568 -0.212884
v 0.636822 0.293833 0.160111
v 0.499901 0.257410 0.212160
v 0.499901 0.578063 -0.313063
v -1.204500 0.577955 -0.035797
v -1.204864 0.544797 0.035094
vt 0.437500 0.412389
vt 0.562500 0.849889
vt 0.562500 0.412389
vt 0.437500 0.841797
vt 0.562500 0.404297
vt 0.437500 0.404297
vt 0.718750 0.375000
vt 0.718750 0.625000
vt 0.281250 0.625000
vt -0.000008 0.495610
vt 0.999992 0.495610
vt 0.999992 0.870009
vt 0.125355 0.980322
vt 0.963690 0.454649
vt 0.964235 0.979452
vt -0.000008 0.186627
vt 0.999992 0.186627
vt 0.999992 0.561028
vt 0.457000 0.179700
vt 0.457000 0.136700
vt 0.480500 0.136700
vt 0.187897 0.312382
vt 0.812897 0.312382
vt 0.187897 0.687381
vt 0.874942 0.441690
vt 0.623742 0.441690
vt 0.623742 0.128092
vt 0.750142 0.816175
vt 0.249342 0.816175
vt 0.249342 0.504175
vt 0.498942 0.816175
vt 0.249342 0.816175
vt 0.249342 0.504175
vt 0.436542 0.128175
vt 0.937342 0.128175
vt 0.937342 0.441776
vt 0.437500 0.187500
vt 0.437500 0.125000
vt 0.500000 0.125000
vt 0.188441 0.750864
vt 0.188441 0.250864
vt 0.813441 0.250864
vt 0.566412 0.125374
vt 0.065612 0.125374
vt 0.065612 0.062973
vt 0.689639 0.685420
vt 0.064039 0.685420
vt 0.064039 0.623019
vt 0.939070 0.501174
vt 0.439870 0.501174
vt 0.439870 0.437175
vt 0.124793 0.187489
vt 0.750392 0.187489
vt 0.750392 0.249890
vt 0.125417 0.125664
vt 0.875817 0.125664
vt 0.875817 0.876064
vt 0.124168 0.876064
vt 0.124167 0.125664
vt 0.874568 0.125664
vt 0.813559 0.749468
vt 0.063159 0.749468
vt 0.063159 0.499868
vt 0.875334 0.749394
vt 0.124934 0.749394
vt 0.124934 0.498195
vt 0.812933 0.561218
vt 0.062534 0.561218
vt 0.062534 0.311619
vt 0.187958 0.125043
vt 0.938358 0.125043
vt 0.938358 0.374644
vt 0.003239 0.937386
vt 0.003239 0.999886
vt 0.065739 0.937386
vt 0.562500 0.375000
vt 0.437500 0.375000
vt 0.437500 0.625000
vt 0.322578 0.579612
vt 0.784165 0.371981
vt 0.785543 0.342688
vt 0.874039 0.062518
vt 0.125961 0.100776
vt 0.126290 0.068613
vt 0.065739 0.937386
vt 0.003239 0.999886
vt 0.065739 0.999886
vt 0.178441 0.504307
vt 0.683340 0.725857
vt 0.682360 0.334650
vt 0.062614 0.039160
vt 0.062614 0.000114
vt 0.000114 0.062614
vt 0.000114 0.023569
vt 0.562500 0.625000
vt 0.555466 0.405586
vt 0.191198 0.434983
vt 0.555786 0.594392
vt 0.437500 0.625000
vt 0.562500 0.625000
vt 0.562500 0.375000
vt 0.281250 0.375000
vt 0.812897 0.687381
vt 0.437500 0.375000
vt -0.000008 0.870009
vt -0.000008 0.561028
vt 0.480500 0.179700
vt 0.874942 0.128092
vt 0.750142 0.504175
vt 0.498942 0.504175
vt 0.436542 0.441776
vt 0.500000 0.187500
vt 0.813441 0.750864
vt 0.566412 0.062973
vt 0.689639 0.623019
vt 0.939070 0.437175
vt 0.124793 0.249890
vt 0.125417 0.876064
vt 0.874568 0.876064
vt 0.813559 0.499868
vt 0.875334 0.498195
vt 0.813715 0.312129
vt 0.813715 0.561728
vt 0.063316 0.312129
vt 0.187958 0.374644
vt 0.124924 0.767546
vt 0.878184 0.296307
vt 0.878184 0.767546
vt 0.222728 0.607936
vt 0.818992 0.373057
vt 0.820235 0.343664
vt 0.062614 0.062614
vt 0.000114 0.000114
vt 0.759617 0.254496
vt 0.408964 0.284514
vt 0.408603 0.093717
vt 0.769779 0.297350
vt 0.194406 0.565186
vt 0.770951 0.764620
vt 0.097794 -0.024095
vt 0.943277 0.014464
vt 0.097732 0.012939
vt 0.437500 0.849889
vt 0.562500 0.841797
vt 0.124811 0.455519
vt 0.783972 0.313404
vt 0.321024 0.108824
vt 0.874039 0.433598
vt 0.178578 0.558729
vt 0.191216 0.410029
vt 0.124924 0.296307
vt 0.819056 0.314269
vt 0.223302 0.078098
vt 0.759523 0.283854
vt 0.194242 0.499671
vt 0.944413 -0.405115
vn 0.0000 -0.9999 -0.0121
vn 0.0000 0.9999 0.0121
vn 1.0000 0.0000 0.0000
vn 0.0000 -0.0000 1.0000
vn 0.0000 -1.0000 -0.0000
vn 0.0000 0.0000 -1.0000
vn -1.0000 0.0000 -0.0000
vn 0.0000 1.0000 0.0000
vn -0.0002 1.0000 0.0000
vn -0.3663 0.0046 -0.9305
vn 0.3374 -0.9414 0.0000
vn 0.2950 0.0000 -0.9555
vn -0.4349 -0.9005 -0.0058
vn 0.2950 -0.0000 0.9555
vn 0.0001 1.0000 0.0000
vn -0.3662 0.0000 0.9305
vn -0.3661 -0.0000 -0.9306
vn -0.4406 -0.8977 -0.0094
vn -0.4371 -0.8994 0.0003
vn -0.3662 -0.0004 0.9305
g Anyavil_Anyavil_Mat
usemtl Mat
s off
f 42/1/1 56/2/1 54/3/1
f 11/4/2 12/5/2 41/6/2
f 6/7/3 7/8/3 42/9/3
f 8/10/4 5/11/4 2/12/4
f 2/13/5 13/14/5 1/15/5
f 13/16/6 3/17/6 4/18/6
f 14/19/5 15/20/5 16/21/5
f 1/22/3 13/23/3 8/24/3
f 17/25/3 18/26/3 14/27/3
f 18/28/4 19/29/4 15/30/4
f 19/31/7 20/32/7 16/33/7
f 21/34/6 16/35/6 20/36/6
f 22/37/5 23/38/5 24/39/5
f 25/40/8 26/41/8 27/42/8
f 28/43/3 27/44/3 22/45/3
f 27/46/4 26/47/4 23/48/4
f 26/49/7 25/50/7 24/51/7
f 29/52/6 24/53/6 25/54/6
f 30/55/5 31/56/5 32/57/5
f 33/58/8 34/59/8 35/60/8
f 36/61/3 35/62/3 30/63/3
f 35/64/4 34/65/4 31/66/4
f 34/67/7 33/68/7 32/69/7
f 37/70/6 32/71/6 33/72/6
f 46/73/3 38/74/3 39/75/3
f 41/76/6 12/77/6 42/78/6
f 9/79/9 58/80/9 48/81/9
f 9/82/10 10/83/10 58/84/10
f 38/85/3 49/86/3 39/87/3
f 46/88/11 55/89/11 47/90/11
f 51/91/7 48/92/7 52/93/7
f 53/94/7 52/93/7 48/92/7
f 54/95/6 41/76/6 42/78/6
f 45/96/12 46/97/12 47/98/12
f 56/99/4 7/100/4 6/101/4
f 12/102/3 6/7/3 42/9/3
f 13/23/3 57/103/3 8/24/3
f 11/104/4 56/99/4 6/101/4
f 1/105/4 8/10/4 2/12/4
f 57/106/6 13/16/6 4/18/6
f 21/107/5 14/19/5 16/21/5
f 21/108/3 17/25/3 14/27/3
f 14/109/4 18/28/4 15/30/4
f 15/110/7 19/31/7 16/33/7
f 17/111/6 21/34/6 20/36/6
f 29/112/5 22/37/5 24/39/5
f 28/113/8 25/40/8 27/42/8
f 29/114/3 28/43/3 22/45/3
f 22/115/4 27/46/4 23/48/4
f 23/116/7 26/49/7 24/51/7
f 28/117/6 29/52/6 25/54/6
f 37/118/5 30/55/5 32/57/5
f 36/119/8 33/58/8 35/60/8
f 37/120/3 36/61/3 30/63/3
f 30/121/4 35/64/4 31/66/4
f 31/122/7 34/123/7 32/124/7
f 36/125/6 37/70/6 33/72/6
f 4/126/8 8/127/8 57/128/8
f 2/129/13 59/130/13 40/131/13
f 43/132/7 51/91/7 52/93/7
f 58/133/7 53/94/7 48/92/7
f 39/134/14 50/135/14 55/136/14
f 50/137/15 38/138/15 45/139/15
f 43/140/16 44/141/16 51/142/16
f 42/1/1 7/143/1 56/2/1
f 11/4/2 6/144/2 12/5/2
f 2/13/5 3/145/5 13/14/5
f 51/146/9 44/147/9 48/81/9
f 44/147/9 9/79/9 48/81/9
f 9/82/17 3/148/17 10/83/17
f 46/88/11 39/149/11 55/89/11
f 45/96/12 38/150/12 46/97/12
f 4/126/8 5/151/8 8/127/8
f 10/152/18 3/153/18 40/131/18
f 3/153/19 2/129/19 40/131/19
f 39/134/14 49/154/14 50/135/14
f 50/137/15 49/155/15 38/138/15
f 43/140/20 2/156/20 44/141/20
